<?xml version="1.0" ?><!DOCTYPE svg  PUBLIC '-//W3C//DTD SVG 1.1//EN'  'http://www.w3.org/Graphics/SVG/1.1/DTD/svg11.dtd'><svg enable-background="new 0 0 512 512" height="512px" id="Calque_1" version="1.1" viewBox="0 0 512 512" width="512px" xml:space="preserve" xmlns="http://www.w3.org/2000/svg" xmlns:xlink="http://www.w3.org/1999/xlink"><g><g><g><g id="XMLID_1_"><g><g><path d="M391.1,256c0,82.73-67.06,149.79-149.79,149.79h-0.01C158.57,405.78,91.52,338.73,91.52,256        s67.05-149.79,149.78-149.8h0.01C324.04,106.2,391.1,173.27,391.1,256z" fill="#FFC035"/></g></g><g><path d="M479.418,231.821c-1.563-1.562-4.096-1.562-5.656,0l-22.571,22.571       c-0.414-55.468-22.193-107.552-61.457-146.816C350.09,67.933,297.379,46.1,241.31,46.1c-115.739,0-209.9,94.161-209.9,209.9       s94.161,209.9,209.9,209.9c71.268,0,137.067-35.696,176.011-95.486c1.206-1.852,0.683-4.329-1.168-5.535       c-1.854-1.208-4.33-0.683-5.535,1.168C373.155,423.563,309.862,457.9,241.31,457.9c-111.328,0-201.9-90.572-201.9-201.9       s90.572-201.9,201.9-201.9c110.777,0,200.989,89.681,201.879,200.252l-22.531-22.531c-1.563-1.562-4.096-1.562-5.656,0       c-1.563,1.562-1.563,4.095,0,5.657l29.38,29.38c0.75,0.75,1.768,1.172,2.828,1.172s2.078-0.422,2.828-1.172l29.38-29.38       C480.98,235.916,480.98,233.383,479.418,231.821z" fill="#303C44"/><path d="M241.31,106.2c82.73,0,149.79,67.07,149.79,149.8s-67.06,149.79-149.79,149.79S91.52,338.73,91.52,256       S158.58,106.2,241.31,106.2z" fill="none"/><path d="M241.31,252c-18.147,0-32.91-14.759-32.91-32.9c0-18.152,14.763-32.92,32.91-32.92h36.9       c2.209,0,4-1.791,4-4s-1.791-4-4-4h-32.9v-37.46c0-2.209-1.791-4-4-4s-4,1.791-4,4v37.658       c-20.687,2.018-36.91,19.508-36.91,40.722c0,22.552,18.352,40.9,40.91,40.9c18.141,0,32.9,14.764,32.9,32.91       s-14.759,32.91-32.9,32.91H204.4c-2.209,0-4,1.791-4,4s1.791,4,4,4h32.91v37.46c0,2.209,1.791,4,4,4s4-1.791,4-4v-37.658       c20.682-2.018,36.9-19.504,36.9-40.712C282.21,270.353,263.862,252,241.31,252z" fill="#C98B0E"/></g></g></g></g><linearGradient gradientUnits="userSpaceOnUse" id="SVGID_1_" x1="241.3" x2="391.1" y1="255.995" y2="255.995"><stop offset="0" style="stop-color:#000000"/><stop offset="1" style="stop-color:#FFFFFF;stop-opacity:0"/></linearGradient><path d="M391.1,256c0,82.73-67.06,149.79-149.79,149.79h-0.01V106.2h0.01   C324.04,106.2,391.1,173.27,391.1,256z" fill="url(#SVGID_1_)" opacity="0.2"/></g></svg>