<?xml version="1.0" ?><svg viewBox="0 0 32 32" xmlns="http://www.w3.org/2000/svg"><defs><style>.a{fill:#fff9c5;}.b,.c,.d,.e{fill:none;stroke:#000;stroke-width:2px;}.b{stroke-linecap:round;stroke-dasharray:16 4 8 0;}.b,.e{stroke-linejoin:round;}.c{stroke-linejoin:bevel;}.d{stroke-miterlimit:10;}</style></defs><title/><path class="a" d="M17.1,27a1.35,1.35,0,0,1-.64-.16,5.42,5.42,0,0,0-4.92,0,1.35,1.35,0,0,1-.64.16,1.42,1.42,0,0,1-1.19-.64,5.43,5.43,0,0,0-4.27-2.47,1.39,1.39,0,0,1-1.33-1.33,5.43,5.43,0,0,0-2.47-4.27,1.4,1.4,0,0,1-.48-1.83,5.4,5.4,0,0,0,0-4.92,1.4,1.4,0,0,1,.48-1.83A5.43,5.43,0,0,0,4.11,5.44,1.39,1.39,0,0,1,5.44,4.11,5.43,5.43,0,0,0,9.71,1.64,1.42,1.42,0,0,1,10.9,1a1.35,1.35,0,0,1,.64.16A5.5,5.5,0,0,0,14,1.75a5.5,5.5,0,0,0,2.46-.59A1.35,1.35,0,0,1,17.1,1a1.42,1.42,0,0,1,1.19.64,5.43,5.43,0,0,0,4.27,2.47,1.39,1.39,0,0,1,1.33,1.33,5.43,5.43,0,0,0,2.47,4.27,1.4,1.4,0,0,1,.48,1.83,5.4,5.4,0,0,0,0,4.92,1.4,1.4,0,0,1-.48,1.83,5.43,5.43,0,0,0-2.47,4.27,1.39,1.39,0,0,1-1.33,1.33,5.43,5.43,0,0,0-4.27,2.47A1.42,1.42,0,0,1,17.1,27Z"/><path class="b" d="M17.55,1.38h0A3.41,3.41,0,0,1,22,2.56h0a3.38,3.38,0,0,0,2.69,1.55h0a3.42,3.42,0,0,1,3.23,3.23h0A3.38,3.38,0,0,0,29.44,10h0a3.41,3.41,0,0,1,1.18,4.42h0a3.45,3.45,0,0,0,0,3.1h0A3.41,3.41,0,0,1,29.44,22h0a3.38,3.38,0,0,0-1.55,2.69h0a3.42,3.42,0,0,1-3.23,3.23h0A3.38,3.38,0,0,0,22,29.44h0a3.41,3.41,0,0,1-4.42,1.18h0a3.45,3.45,0,0,0-3.1,0h0A3.41,3.41,0,0,1,10,29.44h0a3.38,3.38,0,0,0-2.69-1.55h0a3.42,3.42,0,0,1-3.23-3.23h0A3.38,3.38,0,0,0,2.56,22h0a3.41,3.41,0,0,1-1.18-4.42h0a3.45,3.45,0,0,0,0-3.1h0A3.41,3.41,0,0,1,2.56,10h0A3.38,3.38,0,0,0,4.11,7.34h0A3.42,3.42,0,0,1,7.34,4.11h0A3.38,3.38,0,0,0,10,2.56h0a3.41,3.41,0,0,1,4.42-1.18h0A3.45,3.45,0,0,0,17.55,1.38Z"/><line class="c" x1="19" x2="19" y1="9" y2="21"/><path class="d" d="M22,16h3V13.5A1.5,1.5,0,0,0,23.5,12h0A1.5,1.5,0,0,0,22,13.5v5A1.5,1.5,0,0,0,23.5,20h0A1.5,1.5,0,0,0,25,18.5v-1"/><path class="d" d="M16,16H14.5A1.5,1.5,0,0,0,13,17.5v1A1.5,1.5,0,0,0,14.5,20H16V13.5A1.5,1.5,0,0,0,14.5,12h0A1.5,1.5,0,0,0,13,13.5v1"/><path class="e" d="M10,14.5v-1A1.5,1.5,0,0,0,8.5,12h0A1.5,1.5,0,0,0,7,13.5c0,2.5,3,2.5,3,5A1.5,1.5,0,0,1,8.5,20h0A1.5,1.5,0,0,1,7,18.5v-1"/></svg>